PathFileType	4	(X/Y/Z)	C:/Users/empri/Downloads/Take 2024-05-09 02.19.42 PM.trc
DataRate	CameraRate	NumFrames	NumMarkers	Units	OrigDataRate	OrigDataStartFrame	OrigNumFrames
240	240	52	9	mm	240	639	1279
Frame#	Time	C7	CLAV	RELB	RFIN	RFRM	RSHO	RUPA	RWRA	RWRB
X1	Y1	Z1	X2	Y2	Z2	X3	Y3	Z3	X4	Y4	Z4	X5	Y5	Z5	X6	Y6	Z6	X7	Y7	Z7	X8	Y8	Z8	X9	Y9	Z9
639	2.663	-165.131	1560.3	-73.9624	20.0001	1411.69	-130.854	64.1656	1747.23	172.034	191.227	2017.71	116.881	121.442	1845.17	223.011	-68.6632	1578.78	11.6233	-13.5172	1627.87	120.298	214.516	1943.52	138.86	214.31	1951.89	232.458
640	2.667	-165.103	1560.33	-73.9774	19.9924	1411.76	-130.828	63.8867	1748.62	170.02	191.505	2019.61	115.363	121.369	1846.77	221.123	-68.8219	1578.9	11.4466	-13.8032	1628.45	119.483	214.572	1945.1	137.069	214.525	1953.29	230.754
641	2.671	-165.044	1560.38	-73.9917	19.9888	1411.82	-130.803	63.5137	1749.99	168.089	191.72	2021.5	113.793	121.171	1848.32	219.246	-68.9324	1578.99	11.2759	-14.0247	1628.97	118.61	214.637	1946.63	135.256	214.712	1954.68	228.998
642	2.675	-165.001	1560.44	-74.0042	19.9977	1411.88	-130.771	63.1957	1751.3	166.196	191.921	2023.27	112.299	121.031	1849.8	217.388	-69.0387	1579.08	11.141	-14.2805	1629.49	117.77	214.644	1948.12	133.45	214.875	1956.03	227.244
643	2.679	-164.945	1560.5	-74.0175	19.9949	1411.95	-130.73	62.7809	1752.59	164.347	192.079	2025	110.789	120.995	1851.24	215.539	-69.1717	1579.19	11.0297	-14.5337	1630	116.995	214.594	1949.62	131.631	215.144	1957.29	225.435
644	2.683	-164.884	1560.55	-74.0255	19.9895	1412.01	-130.692	62.3464	1753.9	162.513	192.214	2026.66	109.251	120.801	1852.66	213.658	-69.2901	1579.29	10.929	-14.7845	1630.56	116.246	214.58	1951.11	129.813	215.332	1958.65	223.711
645	2.688	-164.795	1560.62	-74.0464	19.9733	1412.06	-130.646	61.7293	1755.47	160.201	192.329	2028.67	107.311	120.584	1854.4	211.237	-69.468	1579.44	10.7778	-15.0379	1631.14	115.26	214.543	1952.93	127.585	215.56	1960.31	221.58
646	2.692	-164.71	1560.66	-74.0392	19.9552	1412.1	-130.602	61.2774	1756.68	158.334	192.414	2030.19	105.827	120.443	1855.76	209.325	-69.6562	1579.53	10.6526	-15.2555	1631.65	114.485	214.505	1954.35	125.808	215.736	1961.56	219.847
647	2.696	-164.63	1560.71	-74.0474	19.9288	1412.15	-130.573	60.7734	1757.89	156.505	192.557	2031.63	104.321	120.223	1857.1	207.336	-69.7876	1579.62	10.5237	-15.4672	1632.11	113.683	214.439	1955.76	124.03	215.893	1962.83	218.132
648	2.7	-164.555	1560.76	-74.0491	19.9019	1412.19	-130.546	60.3445	1759.02	154.651	192.664	2033.1	102.772	120.043	1858.4	205.345	-69.918	1579.7	10.3906	-15.7026	1632.65	112.898	214.427	1957.15	122.263	216.005	1964.07	216.403
649	2.704	-164.48	1560.81	-74.0563	19.8774	1412.23	-130.522	59.9597	1760.09	152.82	192.798	2034.48	101.224	119.811	1859.71	203.361	-70.0732	1579.8	10.2507	-15.984	1633.14	112.13	214.475	1958.47	120.553	216.075	1965.25	214.804
650	2.708	-164.41	1560.86	-74.0603	19.8607	1412.28	-130.494	59.5826	1761.13	150.949	192.956	2035.85	99.6737	119.65	1860.96	201.45	-70.1917	1579.9	10.1162	-16.1766	1633.61	111.356	214.507	1959.75	118.871	216.151	1966.41	213.07
651	2.712	-164.342	1560.9	-74.055	19.8435	1412.32	-130.454	59.1636	1762.21	149.122	193.179	2037.17	98.1829	119.382	1862.22	199.46	-70.3326	1580.01	10.0023	-16.4041	1634.09	110.514	214.563	1961.05	117.175	216.176	1967.55	211.428
652	2.717	-164.278	1560.97	-74.0568	19.8261	1412.39	-130.402	58.685	1763.49	146.733	193.444	2038.84	96.2913	119.023	1863.71	196.942	-70.5245	1580.15	9.82914	-16.741	1634.7	109.538	214.584	1962.62	115.08	216.199	1968.96	209.354
653	2.721	-164.22	1561.02	-74.0435	19.8244	1412.43	-130.364	58.2529	1764.54	144.802	193.654	2040.12	94.7274	118.792	1864.91	194.992	-70.6936	1580.24	9.6606	-17.016	1635.22	108.704	214.639	1963.84	113.419	216.192	1970.06	207.762
654	2.725	-164.161	1561.06	-74.031	19.8249	1412.46	-130.323	57.9238	1765.56	142.873	193.809	2041.37	93.1636	118.455	1866.08	193.016	-70.9416	1580.35	9.46511	-17.1987	1635.69	107.886	214.595	1965.02	111.746	216.082	1971.14	206.189
655	2.729	-164.137	1561.1	-74.0322	19.8166	1412.51	-130.299	57.496	1766.58	140.937	194.007	2042.59	91.6093	118.103	1867.2	191.017	-71.1647	1580.43	9.2961	-17.4024	1636.17	107.034	214.617	1966.11	110.082	216.069	1972.15	204.527
656	2.733	-164.131	1561.14	-74.0291	19.8098	1412.56	-130.266	57.1436	1767.61	139.011	194.212	2043.84	90.063	117.816	1868.27	189.037	-71.3535	1580.54	9.09891	-17.6306	1636.61	106.171	214.569	1967.16	108.382	215.954	1973.16	202.975
657	2.737	-164.138	1561.19	-74.0298	19.7902	1412.59	-130.239	56.7675	1768.56	137.221	194.554	2044.96	88.6829	117.514	1869.32	187.135	-71.5308	1580.64	8.88624	-17.924	1637.08	105.384	214.487	1968.17	106.733	215.895	1974.09	201.278
658	2.742	-164.18	1561.22	-74.0332	19.7786	1412.61	-130.219	56.2655	1769.66	134.867	194.758	2046.46	86.7245	117.2	1870.52	184.783	-71.7285	1580.75	8.65055	-18.2051	1637.62	104.383	214.393	1969.33	104.596	215.778	1975.21	199.205
659	2.746	-164.235	1561.25	-74.0415	19.7588	1412.66	-130.208	55.9268	1770.46	133.139	194.861	2047.62	85.1258	116.89	1871.43	182.971	-71.8782	1580.85	8.47519	-18.4237	1638	103.622	214.294	1970.24	102.896	215.63	1976.08	197.627
660	2.75	-164.301	1561.29	-74.0622	19.7371	1412.68	-130.196	55.4882	1771.19	131.562	195.008	2048.66	83.547	116.631	1872.3	181.175	-72.0627	1580.95	8.29242	-18.6319	1638.35	102.957	214.133	1971.07	101.156	215.599	1976.88	195.884
661	2.754	-164.366	1561.31	-74.0774	19.7166	1412.7	-130.2	55.1656	1771.9	129.992	195.067	2049.79	81.9557	116.4	1873.14	179.4	-72.2253	1581.06	8.14301	-18.8172	1638.73	102.283	214.024	1971.85	99.3988	215.447	1977.67	194.26
662	2.758	-164.433	1561.33	-74.1031	19.6718	1412.75	-130.214	54.8794	1772.52	128.514	195.079	2050.83	80.3807	116.158	1873.95	177.642	-72.4034	1581.2	7.97227	-19.019	1639.07	101.635	213.87	1972.6	97.5875	215.375	1978.38	192.427
663	2.763	-164.529	1561.36	-74.1576	19.6254	1412.79	-130.221	54.4194	1773.27	126.907	195.057	2052	78.451	116.038	1874.87	175.593	-72.7351	1581.38	7.76395	-19.2647	1639.45	100.885	213.618	1973.45	95.329	215.479	1979.23	190.311
664	2.767	-164.604	1561.38	-74.2066	19.5916	1412.83	-130.23	54.1338	1773.84	125.67	194.936	2052.91	76.8721	115.866	1875.6	173.993	-72.8605	1581.5	7.56948	-19.3739	1639.83	100.287	213.427	1974.14	93.5022	215.561	1979.87	188.587
665	2.771	-164.661	1561.39	-74.2625	19.5525	1412.86	-130.253	53.9276	1774.34	124.534	194.821	2053.72	75.3015	115.658	1876.32	172.47	-73.0532	1581.61	7.36771	-19.5147	1640.13	99.7149	213.252	1974.75	91.7573	215.673	1980.46	186.854
666	2.775	-164.714	1561.41	-74.3324	19.5092	1412.9	-130.283	53.6626	1774.87	123.396	194.656	2054.46	73.7312	115.556	1876.93	171.01	-73.1803	1581.71	7.175	-19.6229	1640.37	99.1741	213.044	1975.35	90.0422	215.732	1981.06	185.234
667	2.779	-164.759	1561.43	-74.4138	19.4588	1412.95	-130.328	53.3436	1775.31	122.463	194.472	2055.06	72.1711	115.586	1877.5	169.605	-73.3172	1581.81	6.99164	-19.726	1640.62	98.6458	212.816	1975.91	88.3359	215.861	1981.59	183.581
668	2.783	-164.803	1561.44	-74.5123	19.4091	1413	-130.378	53.2027	1775.74	121.419	194.243	2055.6	70.6589	115.585	1878.06	168.23	-73.4239	1581.89	6.81906	-19.81	1640.91	98.1411	212.645	1976.42	86.7228	216.011	1982.07	181.954
669	2.788	-164.843	1561.44	-74.6722	19.3371	1413.04	-130.445	53.0057	1776.2	120.21	193.963	2056.16	68.7206	115.519	1878.69	166.578	-73.5386	1581.99	6.62745	-19.9421	1641.22	97.5278	212.438	1977	84.7524	216.207	1982.67	179.923
670	2.792	-164.873	1561.45	-74.7887	19.2581	1413.07	-130.503	52.9303	1776.53	119.238	193.777	2056.53	67.1838	115.507	1879.13	165.284	-73.6356	1582.06	6.46738	-20.0321	1641.43	97.0449	212.267	1977.42	83.1515	216.33	1983.11	178.35
671	2.796	-164.891	1561.45	-74.9334	19.196	1413.09	-130.573	52.8081	1776.9	118.269	193.617	2056.86	65.673	115.528	1879.53	164.034	-73.7301	1582.13	6.31326	-20.133	1641.6	96.5345	212.135	1977.76	81.6532	216.448	1983.51	176.835
672	2.8	-164.912	1561.45	-75.0605	19.1283	1413.1	-130.644	52.7513	1777.17	117.29	193.464	2057.11	64.2079	115.503	1879.93	162.787	-73.8542	1582.22	6.16561	-20.1884	1641.76	96.1159	212.047	1978.04	80.2121	216.563	1983.92	175.434
673	2.804	-164.913	1561.46	-75.2155	19.0667	1413.12	-130.698	52.7175	1777.42	116.33	193.311	2057.35	62.795	115.52	1880.26	161.526	-74.034	1582.25	6.0344	-20.197	1641.95	95.763	211.979	1978.31	78.8223	216.713	1984.31	173.977
674	2.808	-164.918	1561.46	-75.349	19.0024	1413.14	-130.755	52.6222	1777.69	115.332	193.208	2057.55	61.3675	115.544	1880.58	160.333	-74.1414	1582.3	5.90531	-20.2789	1642.15	95.389	211.975	1978.54	77.4404	216.846	1984.65	172.586
675	2.813	-164.921	1561.44	-75.5299	18.9081	1413.14	-130.821	52.6266	1777.92	114.182	193.125	2057.72	59.607	115.638	1880.98	158.846	-74.3146	1582.37	5.73274	-20.3349	1642.35	94.8555	211.95	1978.77	75.7482	217.001	1985.03	170.904
676	2.817	-164.924	1561.42	-75.6618	18.8382	1413.14	-130.866	52.6106	1778.11	113.237	193.134	2057.84	58.2516	115.662	1881.25	157.645	-74.4275	1582.41	5.58793	-20.3805	1642.43	94.4457	211.975	1978.92	74.4836	217.137	1985.32	169.678
677	2.821	-164.919	1561.41	-75.8055	18.7699	1413.13	-130.918	52.6317	1778.33	112.29	193.157	2057.99	57.0049	115.686	1881.49	156.508	-74.5555	1582.44	5.43364	-20.4337	1642.53	94.0758	212.05	1979.07	73.2042	217.347	1985.51	168.369
678	2.825	-164.925	1561.38	-75.9477	18.71	1413.12	-130.972	52.6018	1778.49	111.382	193.238	2058.06	55.7739	115.794	1881.73	155.383	-74.6578	1582.46	5.28334	-20.5028	1642.63	93.7183	212.181	1979.18	71.9791	217.519	1985.75	167.165
679	2.829	-164.935	1561.35	-76.0986	18.6408	1413.1	-131.02	52.6719	1778.64	110.484	193.337	2058.11	54.5465	115.878	1881.95	154.338	-74.7589	1582.5	5.13216	-20.529	1642.78	93.3334	212.29	1979.29	70.8259	217.691	1985.92	166.046
680	2.833	-164.955	1561.32	-76.2296	18.5664	1413.08	-131.059	52.6439	1778.84	109.626	193.546	2058.21	53.4028	115.981	1882.16	153.256	-74.8653	1582.53	4.98572	-20.5624	1642.92	92.9373	212.464	1979.39	69.6773	217.947	1986.03	164.873
681	2.837	-164.987	1561.3	-76.3678	18.4909	1413.07	-131.1	52.6285	1778.98	108.843	193.745	2058.3	52.3639	116.026	1882.37	152.191	-74.9766	1582.56	4.8462	-20.6	1643.01	92.5274	212.63	1979.44	68.6004	218.215	1986.16	163.777
682	2.842	-165.035	1561.25	-76.5481	18.4009	1413.03	-131.161	52.6477	1779.17	107.814	194.093	2058.42	51.0333	116.148	1882.6	150.901	-75.1233	1582.61	4.66812	-20.6498	1643.1	92.0949	212.869	1979.53	67.287	218.56	1986.29	162.49
683	2.846	-165.068	1561.2	-76.6746	18.3324	1412.99	-131.209	52.5704	1779.36	107.067	194.363	2058.58	50.0273	116.259	1882.81	149.952	-75.2472	1582.64	4.53632	-20.691	1643.16	91.7887	213.091	1979.57	66.306	218.789	1986.36	161.542
684	2.85	-165.113	1561.15	-76.8116	18.2662	1412.96	-131.266	52.5481	1779.52	106.307	194.693	2058.66	49.1209	116.391	1882.95	149.041	-75.3515	1582.65	4.42002	-20.731	1643.22	91.4975	213.268	1979.63	65.2733	219.036	1986.4	160.59
685	2.854	-165.156	1561.11	-76.911	18.1789	1412.91	-131.33	52.4828	1779.63	105.59	195.053	2058.81	48.1778	116.503	1883.1	148.269	-75.4798	1582.66	4.30435	-20.7729	1643.27	91.2146	213.466	1979.65	64.3587	219.345	1986.41	159.555
686	2.858	-165.199	1561.08	-77.0143	18.1226	1412.88	-131.376	52.4983	1779.73	104.857	195.355	2058.97	47.3485	116.647	1883.22	147.566	-75.5841	1582.68	4.19823	-20.8136	1643.32	90.9246	213.646	1979.66	63.4028	219.617	1986.4	158.665
687	2.862	-165.245	1561.06	-77.1222	18.0572	1412.84	-131.434	52.44	1779.85	104.223	195.753	2059.11	46.5026	116.733	1883.35	146.674	-75.6777	1582.69	4.08556	-20.858	1643.39	90.6042	213.807	1979.65	62.5144	219.898	1986.37	157.766
688	2.867	-165.312	1561.02	-77.2723	17.9707	1412.8	-131.532	52.4839	1779.95	103.503	196.181	2059.29	45.5649	116.918	1883.45	145.751	-75.7964	1582.73	3.93298	-20.904	1643.5	90.1498	214.02	1979.62	61.4089	220.261	1986.32	156.706
689	2.871	-165.352	1560.98	-77.3879	17.9128	1412.76	-131.605	52.3852	1780.05	102.96	196.546	2059.37	44.7473	117.105	1883.53	145.137	-75.8916	1582.71	3.78681	-20.955	1643.58	89.8235	214.216	1979.56	60.6107	220.584	1986.25	155.885
690	2.875	-165.411	1560.96	-77.518	17.8482	1412.72	-131.681	52.3643	1780.11	102.48	196.925	2059.44	44.0793	117.261	1883.59	144.677	-75.998	1582.71	3.64627	-21.0463	1643.62	89.5098	214.352	1979.49	59.7652	220.83	1986.17	155.1
